# xmcd
#
# Track frame offsets:
#	150
#	15052
#	29731
#	44225
#	57222
#	70954
#	91495
#	110292
#	122504
#	135831
#	146638
#	167430
#	182837
#	193771
#	202916
#	220763
#	234399
#	248069
#	262946
#	272168
#	281713
#	298735
#
# Disc length: 4163 seconds
#
# Revision: 1
# Processed by: cddbd v1.5.2PL0 Copyright (c) Steve Scherf et al.
# Submitted via: audiograbber 1.83.01
#
DISCID=43104116
DTITLE=Cowslingers - Promotional Use Only
DYEAR=1999
DGENRE=Country
TTITLE0=Satan's Hand
TTITLE1=88 Mustang
TTITLE2=Two Eggs
TTITLE3=Too Manny Pills
TTITLE4=Three On A Match
TTITLE5=Go Cat Go !!!
TTITLE6=Shotgun
TTITLE7=Drink 'Em Up
TTITLE8=Roll on Big Mama
TTITLE9=Baby Don't Come 'Round
TTITLE10=Heyday
TTITLE11=One Piece at a Time
TTITLE12=18 Wheels to Hell
TTITLE13=Truck Drivin' Man
TTITLE14=Queen of the Truckstop
TTITLE15=Two-Ton Load
TTITLE16=Trailer Trash
TTITLE17=Cowboy Bob
TTITLE18=Rosanna's Going Wild
TTITLE19=Hogtied
TTITLE20=Bad Booze Rodeo
TTITLE21=If Dreams were Beer
EXTD=PROMO
EXTT0=Americana-A-Gogo [Shake It/99]
EXTT1=
EXTT2=
EXTT3=
EXTT4=
EXTT5=
EXTT6=A Fistful of Pesetas [ROCKnRoll Inc/96]\n
EXTT7=
EXTT8=
EXTT9=
EXTT10=
EXTT11=
EXTT12=That's Truckdrivin' [SFTRI/94]
EXTT13=
EXTT14=
EXTT15=
EXTT16=Off the Wagon and Back in the Saddle [DRINKnDRIVE/94]
EXTT17=
EXTT18=
EXTT19=
EXTT20=
EXTT21=
PLAYORDER=
